<svg id="ic-duvidas" xmlns="http://www.w3.org/2000/svg" width="16.8" height="16.8" viewBox="0 0 16.8 16.8">
  <path id="Path_52" data-name="Path 52" d="M8.4,0a8.4,8.4,0,1,0,8.4,8.4A8.376,8.376,0,0,0,8.4,0Zm.762,12.984a.363.363,0,0,1-.384.384H8.016a.363.363,0,0,1-.384-.384v-.762a.363.363,0,0,1,.384-.384h.762a.363.363,0,0,1,.384.384Zm1.034-3.4c-.533.458-.917.762-1.029,1.183a.37.37,0,0,1-.384.3H8.021a.373.373,0,0,1-.384-.421,3.581,3.581,0,0,1,1.6-2.25c.688-.533,1.071-.879,1.071-1.529a1.908,1.908,0,1,0-3.816,0V7.1a.351.351,0,0,1-.267.421L5.5,7.75a.381.381,0,0,1-.5-.3,2.974,2.974,0,0,1-.037-.575,3.438,3.438,0,1,1,6.875,0A3.382,3.382,0,0,1,10.2,9.583Zm0,0" fill="#2ea3cf"/>
</svg>
