<svg xmlns="http://www.w3.org/2000/svg" xmlns:xlink="http://www.w3.org/1999/xlink" width="46" height="46" viewBox="0 0 46 46">
  <defs>
    <linearGradient id="linear-gradient" x1="0.5" y1="1" x2="0.5" gradientUnits="objectBoundingBox">
      <stop offset="0" stop-color="#ea6525"/>
      <stop offset="1" stop-color="#f7981f"/>
    </linearGradient>
  </defs>
  <g id="ic-login" transform="translate(-5 -5)">
    <path id="Path_13" data-name="Path 13" d="M23,0A23,23,0,1,0,46,23,23.084,23.084,0,0,0,23,0Zm0,6.824a7.582,7.582,0,1,1-7.582,7.582A7.6,7.6,0,0,1,23,6.824ZM23,40.06a16.809,16.809,0,0,1-10.995-4.044,3.182,3.182,0,0,1-1.137-2.527,7.659,7.659,0,0,1,7.709-7.709h8.846a7.659,7.659,0,0,1,7.709,7.709,3.182,3.182,0,0,1-1.137,2.527A16.809,16.809,0,0,1,23,40.06Zm0,0" transform="translate(5 5)" fill="url(#linear-gradient)"/>
  </g>
</svg>
