<svg id="logo-megamamute" xmlns="http://www.w3.org/2000/svg" xmlns:xlink="http://www.w3.org/1999/xlink" width="202" height="84.034" viewBox="0 0 202 84.034">
  <defs>
    <linearGradient id="linear-gradient" x1="0.561" y1="0.5" x2="3.339" y2="0.5" gradientUnits="objectBoundingBox">
      <stop offset="0" stop-color="#203a6d"/>
      <stop offset="0.144" stop-color="#1f3c73"/>
      <stop offset="0.331" stop-color="#1b4283"/>
      <stop offset="0.5" stop-color="#174a98"/>
      <stop offset="0.629" stop-color="#1d448a"/>
      <stop offset="0.792" stop-color="#214080"/>
      <stop offset="1" stop-color="#223f7d"/>
    </linearGradient>
    <linearGradient id="linear-gradient-2" x1="-0.846" y1="0.5" x2="2.994" y2="0.5" xlink:href="#linear-gradient"/>
    <linearGradient id="linear-gradient-3" x1="-1.695" y1="0.5" x2="1.7" y2="0.5" xlink:href="#linear-gradient"/>
    <linearGradient id="linear-gradient-4" x1="-2.27" y1="0.5" x2="0.62" y2="0.5" xlink:href="#linear-gradient"/>
    <linearGradient id="linear-gradient-5" x1="0.794" y1="0.5" x2="4.74" y2="0.5" xlink:href="#linear-gradient"/>
    <linearGradient id="linear-gradient-6" x1="-0.167" y1="0.5" x2="3.851" y2="0.5" xlink:href="#linear-gradient"/>
    <linearGradient id="linear-gradient-7" x1="-1.103" y1="0.5" x2="2.842" y2="0.5" xlink:href="#linear-gradient"/>
    <linearGradient id="linear-gradient-8" x1="-2.645" y1="0.5" x2="2.208" y2="0.5" xlink:href="#linear-gradient"/>
    <linearGradient id="linear-gradient-9" x1="-3.738" y1="0.5" x2="1.252" y2="0.5" xlink:href="#linear-gradient"/>
    <linearGradient id="linear-gradient-10" x1="-5.137" y1="0.5" x2="0.28" y2="0.5" xlink:href="#linear-gradient"/>
    <linearGradient id="linear-gradient-11" x1="0.339" y1="0.892" x2="1.134" y2="-0.189" gradientUnits="objectBoundingBox">
      <stop offset="0.4" stop-color="#ea6525"/>
      <stop offset="0.471" stop-color="#eb6b24"/>
      <stop offset="0.565" stop-color="#f07b22"/>
      <stop offset="0.67" stop-color="#f6961f"/>
      <stop offset="0.677" stop-color="#f7981f"/>
    </linearGradient>
  </defs>
  <g id="Group_6" data-name="Group 6">
    <g id="Group_5" data-name="Group 5" transform="translate(66.46 7.202)">
      <g id="Group_4" data-name="Group 4">
        <path id="Path_2" data-name="Path 2" d="M348.422,78.1h-4.56V45.649l-11.677,25.74h-3.878L316.46,45.649V78.1H311.9V35.4h4.56l13.893,30.279L343.883,35.4h4.56V78.1Z" transform="translate(-311.9 -35.059)" fill="url(#linear-gradient)"/>
        <path id="Path_3" data-name="Path 3" d="M539.543,78.1H513.1V35.4h26.443v4.07h-21.9V54.513H536.3V58.6H517.639V74.01h21.9Z" transform="translate(-470.228 -35.059)" fill="url(#linear-gradient-2)"/>
        <path id="Path_4" data-name="Path 4" d="M675.917,61.245q0,7.064-3.644,11.038a15.6,15.6,0,0,1-22.267.49,12.777,12.777,0,0,1-3.537-6.712A74.466,74.466,0,0,1,646,55.513a74.626,74.626,0,0,1,.469-10.569,12.552,12.552,0,0,1,3.537-6.712,15.822,15.822,0,0,1,21.031-.831,15.1,15.1,0,0,1,4.88,9.184h-4.581a11.228,11.228,0,0,0-3.665-6.392,10.276,10.276,0,0,0-6.755-2.323,9.954,9.954,0,0,0-7.394,3.068,9.6,9.6,0,0,0-2.514,4.986,62.161,62.161,0,0,0-.49,9.589,63.361,63.361,0,0,0,.49,9.653,9.758,9.758,0,0,0,2.514,4.986,10.67,10.67,0,0,0,15.448-.682,11.815,11.815,0,0,0,2.386-7.735V58.5H660.894V54.469h15.022Z" transform="translate(-574.81 -33.8)" fill="url(#linear-gradient-3)"/>
        <path id="Path_5" data-name="Path 5" d="M817.537,78.1H812.7l-3.431-9.674h-18.6L787.237,78.1H782.4l15.683-42.7h3.835Zm-9.589-13.616-7.884-22.544-8.033,22.544Z" transform="translate(-682.146 -35.059)" fill="url(#linear-gradient-4)"/>
      </g>
      <path id="Path_6" data-name="Path 6" d="M337.84,285.936h-6.8V272.7l-3.9,6.819H322.8l-3.9-6.819v13.232h-6.8V258.3h6.669l6.2,12.188,6.2-12.188h6.669v27.637Z" transform="translate(-312.057 -210.464)" fill="url(#linear-gradient-5)"/>
      <path id="Path_7" data-name="Path 7" d="M453.171,285.936H446.1l-1.278-4.112h-8.481L435,285.936h-7.1L437.936,258.3h5.22Zm-10.143-9.78-2.323-7.394-2.493,7.373h4.816Z" transform="translate(-403.183 -210.464)" fill="url(#linear-gradient-6)"/>
      <path id="Path_8" data-name="Path 8" d="M567.04,285.936h-6.8V272.7l-3.9,6.819H552l-3.9-6.819v13.232h-6.8V258.3h6.669l6.2,12.188,6.2-12.188h6.669Z" transform="translate(-492.419 -210.464)" fill="url(#linear-gradient-7)"/>
      <path id="Path_9" data-name="Path 9" d="M688.724,276.141a9.315,9.315,0,0,1-3.026,7.181,10.735,10.735,0,0,1-7.479,2.749,10.41,10.41,0,0,1-7.351-2.706,9.3,9.3,0,0,1-3.068-7.223V258.2h6.776v17.771a4.178,4.178,0,0,0,.98,2.962A3.434,3.434,0,0,0,678.22,280a3.61,3.61,0,0,0,2.727-1.065,4.186,4.186,0,0,0,1-2.962V258.2h6.776Z" transform="translate(-591.965 -210.385)" fill="url(#linear-gradient-8)"/>
      <path id="Path_10" data-name="Path 10" d="M785.349,264.352h-6.776v21.585h-6.8V264.352H765V258.3h20.328v6.051Z" transform="translate(-668.453 -210.464)" fill="url(#linear-gradient-9)"/>
      <path id="Path_11" data-name="Path 11" d="M878.751,285.936H860V258.3h18.751v6.051H866.776v4.624H877v6.051H866.776v4.858h11.975Z" transform="translate(-743.211 -210.464)" fill="url(#linear-gradient-10)"/>
    </g>
    <path id="Path_12" data-name="Path 12" d="M57.553,83.868c.341.32,1.683.17,1.747-.384.043-.3-.426-1.364-.959-1.364C57.638,82.121,57.382,83.7,57.553,83.868Zm-3.665-.341c.107.4,1.619.6,1.96.256.256-.277-.447-1.918-.874-1.918C54.4,81.887,53.76,83.123,53.888,83.527Zm-3.175-1.321c.085.341,1,.98,1.342.874.17-.064.17-.4.17-.852a1.281,1.281,0,0,0-.362-.98C51.352,80.992,50.628,81.887,50.713,82.206Zm-.661-1.278a1.2,1.2,0,0,0,.341.874c.213.149.874-1.3,1.619-.852.81.511-.021,2.237.959,2.386.895.128.959-1.939,1.96-1.811,1.129.149,1.087,2.344,1.875,2.344.724,0,.341-1.875,1.321-2.173,1-.32,1.385,1.577,1.534,1.662.192.128.682.213,1.832-.746s.682-2.323.49-4.475c-.064-.618.277-2.514.277-3.452V63.306c0-1.3-.341-1.385-.916-.234A88.635,88.635,0,0,1,56.7,71.126c-3.942,6.137-4.5,5.668-4.88,6.328-.575.959-.98,1.449-1.172,1.769A6.138,6.138,0,0,0,50.053,80.928ZM0,34.775c0,9.951,7.841,15,11.911,16.365a11.045,11.045,0,0,0,7.33-.043,8.846,8.846,0,0,0,2.813,2.109c1.726.81,4.816.511,4.816.511a8.955,8.955,0,0,0,2.514,4.645c2.323,2.557,5.561,3,8.054,4.837,2.514,1.854,3.2,2.791,3.3,5.945.085,3.154-.895,4.837-1.534,5.434-.661.6-.852.021-1.96.085s-.788.874-.384,1.193,1.278.341,1.7,1.193a3.259,3.259,0,0,0,2.621,1.3c.959.107,2.173-.533,2.983-2.557s2.109-3.6,1.769-8.672-1.023-6.712-4.219-9.61a41.3,41.3,0,0,0-6.243-4.666c.256-1.832-.831-3.686-.767-4.2a12.186,12.186,0,0,1,1.215-2.3c.618.895,2.408-1.129,4.219-4.3S44.278,40.8,46.388,40s4.432-.81,5.2.661c.788,1.47-.852,1.811-1.023,4.326s1.065,2.727,1.151,5.988-.043,4.794,1.428,8.715c1.449,3.921,1.811,4.07,2.131,5.8.341,1.747-.149,4.24,0,4.688.17.447,1.278-.426,3.026-3.068.916-1.406,2.131-3.218,3.026-4.88a12.438,12.438,0,0,0,.916-4.624v-4.3a19.857,19.857,0,0,0-.469-4.006c-.533-2.408-.98-4.986-1.257-6.542.277,1.172.746,2.323,1.257,4.581.085.341.469,1.321.469-.128V9.674c0-2.408-1.193-2.791-2.024-2.727-1.129.085-2.514.192-3.985.192-2.088,0-2.259-1.193-2.578-2.131a1.7,1.7,0,0,0-2.088-1c-.81.213-1.364-.17-1-.788.447-.746,1.854-.618,1.854-.618a2.719,2.719,0,0,0-2.3-.107c-.7.4-1.193.4-1.172-.192C48.966,1.129,50.5.767,50.5.767S48.454.661,47.751,2.152c-.341.746-.682.639-.831.234-.213-.618.6-1.023.6-1.023-.533.149-1.257.064-1.79,1.044-.384.724-1.3.469-.938-.213A3.493,3.493,0,0,1,47.261.575,4.793,4.793,0,0,0,43.6,1.982c-1.236,1.236-1.79,2.365-1.534,1.278A2.7,2.7,0,0,0,40.57,0,4.71,4.71,0,0,1,41,2.749c-.618,2.408-3.132,5.007-3.6,6.5-.447,1.492-.6,3.793-1.832,5.838-1.236,2.067-1.982,1.811-2.664,3.793a4.486,4.486,0,0,0,.021,3.345S31.344,24.27,30.6,25.186c-.746.895.213,1.832.213,1.832s-1.683.895-3.388,7.522-1.7,9.056-1.7,9.056a15.667,15.667,0,0,1-5.327,3.473c-2.877-4.049-2.365-8.076-.021-13.829,2.323-5.753,9.077-7.415,8.885-8.033-.17-.618-4.432.511-7.032,2.727-2.621,2.237-6.712,8.076-6.712,12.913a21.41,21.41,0,0,0,1.172,7.138A4.558,4.558,0,0,1,15,48.2c-3.068,0-12.508-3.09-12.508-12.657,0-11.655,8.545-11.932,8.161-12.7C10.313,22.139,0,24.824,0,34.775ZM40.592,20.754c-.277-.49.554-1.215,1.406-1.044.746.149,1.257,1.619.426,1.811A2.676,2.676,0,0,1,40.592,20.754Zm-.32,56.85a2.33,2.33,0,0,1-1.215-.767,3.306,3.306,0,0,0-.554-.554,2.647,2.647,0,0,1,1.513.554C40.592,77.242,40.592,77.646,40.272,77.6Z" fill="url(#linear-gradient-11)"/>
  </g>
</svg>
